# xmcd
#
# Track frame offsets:
# 150
# 17556
# 33443
# 54237
# 66844
# 84770
# 99711
# 115940
# 130859
# 143766
# 157907
# 171069
# 184999
# 199591
#
# Disc length: 2861 seconds
#
#
# Revision: 0
# Processed by: cddbd v1.5PL3 Copyright (c) Steve Scherf et al.
# Submitted via: FreeRIP 2.52 
#
DISCID=af0b2b0e
DTITLE=Various Artist - Deep In The heart ofTexas
DYEAR=1900
DGENRE=Country
TTITLE0=The Yellow Rose Of Texas
TTITLE1=Deep In The Heart Of Texas
TTITLE2=El Paso
TTITLE3=Waltz Across Texas
TTITLE4=San Antonio Rose
TTITLE5=Beaumont Rag
TTITLE6=The Eyes of Texas
TTITLE7=Home In San Antone
TTITLE8=Abilene
TTITLE9=Across The Alley From The Alamo
TTITLE10=Pan Handle Rag
TTITLE11=The Streets Of Laredo
TTITLE12=A Big Ball In Cowtown
TTITLE13=Lonestar Rag
EXTD=
EXTT0=
EXTT1=
EXTT2=
EXTT3=
EXTT4=
EXTT5=
EXTT6=
EXTT7=
EXTT8=
EXTT9=
EXTT10=
EXTT11=
EXTT12=
EXTT13=
PLAYORDER=
